<svg version="1.1" xmlns="http://www.w3.org/2000/svg" xmlns:xlink="http://www.w3.org/1999/xlink">
   <symbol id="bloodPlus" viewBox="0 0 42 42">
  <defs><style type="text/css">

    .fil0 {fill: black;fill-rule: nonzero}

    .fil1 {fill: black;fill-rule: nonzero}

  </style></defs>
     <g><path class="fil0" d="M213 220c0,58 -48,106 -106,106 -59,0 -107,-48 -107,-106 0,-29 48,-120 78,-177 9,-16 15,-29 20,-37 3,-8 14,-8 17,0 1,0 18,34 20,37 30,57 78,148 78,177zm-20 0c0,-24 -47,-113 -76,-168l-10 -20 -11 20c-29,55 -76,144 -76,168 0,47 39,86 87,86 47,0 86,-39 86,-86z"/>
       <polygon class="fil1"
                points="117,163 117,195 149,195 149,215 117,215 117,248 97,248 97,215 64,215 64,195 97,195 97,163 "/></g>
  </symbol>

  <symbol id="bloodMinus" viewBox="0 0 42 42">
  <svg xmlns="http://www.w3.org/2000/svg" xmlns:xlink="http://www.w3.org/1999/xlink" version="1.1" x="0px" y="0px"
       viewBox="0 0 168.292 351.41125" enable-background="new 0 0 168.292 281.129" xml:space="preserve"><path d="M84.535,270.51c-21.217,0-41.165-8.263-56.169-23.266C13.363,232.241,5.1,212.293,5.101,191.075  c0.001-32.104,19.943-76.997,36.672-109.003c9.452-18.085,18.778-33.863,24.938-43.915c3.68-6.006,6.537-10.477,8.285-13.171  c4.008-6.174,5.217-8.037,9.241-8.196l0.485-0.019l0.484,0.047c3.787,0.365,4.858,2.005,8.845,8.108  c1.757,2.688,4.619,7.139,8.28,13.075c6.165,9.995,15.496,25.69,24.945,43.701c16.738,31.91,36.691,76.787,36.691,109.373  C163.968,234.876,128.334,270.51,84.535,270.51z M84.551,36.438c-1.544,2.43-3.469,5.498-5.709,9.153  c-6.043,9.863-15.192,25.341-24.459,43.071c-15.99,30.595-35.052,73.198-35.053,102.414c-0.001,17.418,6.781,33.793,19.098,46.107  c12.317,12.316,28.692,19.1,46.108,19.1c35.954,0,65.205-29.251,65.205-65.207c0-29.689-19.067-72.271-35.062-102.764  c-9.259-17.648-18.41-33.039-24.456-42.842C88.006,41.877,86.093,38.847,84.551,36.438z"/>
    <rect x="51.146" y="182.314" width="66" height="15"/>
</svg>
      </symbol>

</svg>
